<svg xmlns="http://www.w3.org/2000/svg" viewBox="0 0 1206.9 890"><defs><style>.cls-1{fill:#e7e0d9;}.cls-2{fill:#5c6e36;}.cls-3{fill:#d4de27;}.cls-4{fill:#024c2d;}.cls-5{fill:#8f534a;}.cls-6{fill:#74151e;}.cls-7{fill:#cf9e31;}.cls-8{fill:#e4beb0;}.cls-9{fill:#c8b287;}</style></defs><title>background</title><g id="Layer_2" data-name="Layer 2"><g id="Layer_1-2" data-name="Layer 1"><rect class="cls-1" x="6.9" width="1200" height="890"/><path id="_Path_" data-name="&lt;Path&gt;" class="cls-2" d="M455.72,601l-2.88,1.65a52.42,52.42,0,0,1-29.54,6.8l-4.71-.32a29.61,29.61,0,0,1-18-7.68l-.79-.72c-7.17-6.64-9.42-12.92-6.15-15.28l6.42-2.57c4.69-2.62,15.72-3.86,27.73,3.85s29.12,6.58,29.12,6.58l1,3.45L455.72,601Z"/><path id="_Path_2" data-name="&lt;Path&gt;" class="cls-2" d="M392.5,582.42c-2.19-2.32,1.37-7.88,2.52-8.89l3.91-3.45a26.76,26.76,0,0,1,9.78-6.72,10.78,10.78,0,0,1,3.11-.64l15.42-2.1a9.92,9.92,0,0,1,3.22.09c11.45,2.23,11.9,5.16,22.24,13.21l6.32,7.39a8.82,8.82,0,0,1,2.08,6.46h0a3.39,3.39,0,0,1-1.31,2.4c-26,3.6-29.62-15.69-57.52-11.58Z"/><path id="_Path_3" data-name="&lt;Path&gt;" class="cls-2" d="M386.74,509c8.17-.33,12.67,2.61,12.67,2.61a23.17,23.17,0,0,1,11.3,9.54l6.18,10.2a15.91,15.91,0,0,1,2.3,8.16s0,2.79,0,6-2.11,8.5-3.73,5.21c-5.53-12.55-41.19-33.94-38-39.77h0S379.46,509.3,386.74,509Z"/><path id="_Path_4" data-name="&lt;Path&gt;" class="cls-2" d="M376.43,518.34a1.81,1.81,0,0,1,.24.29c13.79,20.08,37.84,27.81,36.49,33.33,1.82,4-1.86,4.83-1.86,4.83a17.13,17.13,0,0,1-7.53,1.34l-5.65-.38s-12.47-3.23-19.68-9.26c-5.45-4.55-8.79-14.67-10.11-19.36a9.07,9.07,0,0,1,0-4.78l1.84-6.91a3.09,3.09,0,0,1,4.54-.6c.14.11.54.36.54.36h0Z"/><path id="_Path_5" data-name="&lt;Path&gt;" class="cls-2" d="M355.26,555.92l2.57,1.86a36.47,36.47,0,0,1,9.86,17.83c2.86,14.3,8.46,22.31,11.69,25.93a2.89,2.89,0,0,1-.86,4.5,6.73,6.73,0,0,1-3.71.91c-6.13-1-12-7.75-12-7.75s-12-10.76-12.06-22.22c-.12-22.75,4.53-21.06,4.53-21.06Z"/><path id="_Path_6" data-name="&lt;Path&gt;" class="cls-2" d="M388.71,578.48c.81,2.9-.09,15.63-3,21.49a2.85,2.85,0,0,1-2.61,1.56h0s-1.49.81-6.71-7.58-1.84-26.22-16.6-38.59c-2.12-2.68,5.07-3.4,5.07-3.4S381.84,553.78,388.71,578.48Z"/><path id="_Compound_Path_" data-name="&lt;Compound Path&gt;" class="cls-2" d="M350.61,596.62l9.62-3.54a4.87,4.87,0,0,1,1.93-.3c3,.15,12.13,1.1,18.91,7,7.14,6.17,11.27,17.08,12.26,19.94a4.82,4.82,0,0,1,.26,1.41c.13,3.48-1,21.37-4.77,21.37-4.31,0-1.82-18.47-14.68-22.29-14.42-4.29-19.13-16.2-22.11-19a4.92,4.92,0,0,1-1.44-4.49v0Zm-1.21,5.67c-2.49-3.55-4.42-1.25-5.2.06a4.78,4.78,0,0,0-.51,1.22l-2,7.35a5.77,5.77,0,0,0,.07,2.78c4.42,19.51,5.61,22.69,18.34,28.51,16.66,7.61,22.2,3.89,18.3,3.34-.48-.07.76-.61,1.2-.82l5.31-.31c1.8-.87.15-3.64,0-5.63q0-.13,0-.26a5,5,0,0,0-.4-1.49c-4.46-9.88-10.53-11.53-14.15-13.05a48.5,48.5,0,0,1-10.74-9.52S352.16,606.23,349.39,602.29Z"/><g id="_Group_" data-name="&lt;Group&gt;"><path id="_Compound_Path_2" data-name="&lt;Compound Path&gt;" class="cls-3" d="M350,697.35l-26.46,2.35a26.38,26.38,0,0,1-20.35-7h0A104.75,104.75,0,0,1,272.9,640.8l-5.38-22.25.89-.94,4.15,1.17,2.16,11.13,1.91.9s26.13-13.72,40.55-13.2S351.37,627,351.37,627s9.46,4.56,2.85,8.68c-10.28,6.41-17.81,7.93-17.81,7.93l.07.72,16.77,18.38a15.67,15.67,0,0,1,3.93,8.28L360,690.56a5.8,5.8,0,0,1-1.1,4.32h0a5.8,5.8,0,0,1-4.44,2.32l-4.52.16Zm-54.76-57.79-10-7.95-8.76,1-.28.45,4.28,6.63,14.81-.14Z"/></g><path id="_Path_7" data-name="&lt;Path&gt;" class="cls-4" d="M156.46,407s-23.23-4.88-35.65-5.75S95,406,95,406l59.29-25.16s17.3-9.17,16-13.49-7.52-3-7.52-3L95.36,391.54l34.64-28,62.55-19.82s5.14-1.85,2.26-5.47-14.57.33-14.57.33l-46.68,13.38,78.32-42.67s20.54-10.54,16.63-14.87S202,303.54,202,303.54l-20.22,8L227.24,268s4.69-7.5,1.2-9.76-7.88,1.54-7.88,1.54l-50,50.51,25.65-42.2s12.42-12.86,5.51-13.92-14.4,9-14.4,9l-47.63,73.16,24.07-74.09s1.5-4.65-1.52-5.8-5.95,1.28-5.95,1.28l-41.46,95.89L93.58,374.86s45.27-80.19,34.28-83.12c-10.57-2.82-51.32,92.35-51.32,92.35L61.69,402,72.6,339s.62-2.49-2.76-5-4.57,2.18-4.57,2.18l-26.59,98.6c-1.51,16.07-6.08,2.77-6-.84l.52-39.83s2.71-14.56-4.45-9.75-7.48,9.16-7.48,9.16l-8.3,42-1.57-5s.71-10.79-5.45-7.1S0,431.32,0,431.32L2.87,544.53a19.9,19.9,0,0,0,2.59,5.17c1.92,2.82,4.87-3.23,4.87-3.23l21-46.48,63.23-34s16.2-1.89,9.08-13c-2.39-3.73-40.72,10.83-40.72,10.83l-18.29,10.9S82,441.54,100.22,439.08s27.46-2.75,27.46-2.75,5.87-2.23,6.74-5.9-6.91-5.47-6.91-5.47-13-.9-24.57-1.15-46.38,21.37-47.1,16.43,28.36-19.34,42.25-24,55.95.95,55.95.95,5.16-1,7.07-4-4.64-6.23-4.64-6.23Z"/><path id="_Compound_Path_3" data-name="&lt;Compound Path&gt;" class="cls-5" d="M293.46,554.14c-.65-13.72-14.16-17.62-14.16-17.62l-2.83-1.82,2.5-2.32,4.1-2.44s2.57-2.41.5-7.42-44-34.75-44-34.75-47.35-30-53.9-33.1l-22.86-10.75H158.9L156,448.45,154.33,456l-1.72,73.26,1.46,6-5.33,1.29-4.58,3.83,2.29,4.42,13.31,11,24.09,15.64,16.05,7.87.56-.35a8.77,8.77,0,0,0,3.82-9.63l0-.07,1.37-2.6,12.69,2.4S235.54,581.6,249.11,584s22,.86,28.23-1.35a18.94,18.94,0,0,0,9.15-6.63l5.87-9,.43-3S294.11,567.86,293.46,554.14Zm-15.58,15.38c-5,7.71-16.52,6.1-27.48,5.05-11.23-1.07-15-6.37-15-6.37l-3.08-4.11,14.26-8.62,19-11.74,5.21-.61s4.16-1.24,8.86,6,3.24,12.71,3.24,12.71Z"/><path id="_Path_8" data-name="&lt;Path&gt;" class="cls-6" d="M186.58,554.42c-5.86-6.45-10.68-3.86-10.68-3.86L24.56,551.74s-5.57,2.16-4.18,8.87,6.71,15.73,6.71,15.73,10,21.62,15.73,27.22l18.6,18.16,17.17,11.94.53,6.54s-1,5.6,4.18,5.6h45.48s3.57,1.09,4.1-5.45.62-6.69.62-6.69,6.54-4,17.17-11.94,13.69-13.54,20.51-23,13.62-17.08,15.73-27.22l1.48-7.1h0S189,557,186.58,554.42Z"/><path id="_Path_9" data-name="&lt;Path&gt;" class="cls-7" d="M266.94,464.84,240.82,335.68l-7-11.28-9.43-7a25.71,25.71,0,0,1-5.16-5.1l-6.46-8.5c-4-7.55-5.18-9.77-5.23-15.3l-.08-8.29c-1.17-25.77,33.78-56.81,51.32-11.78,0,0,8.68,13.76,5.56,27.09a32.32,32.32,0,0,1-9.59,16.24l-4.84,10.77-.66,10,35.88,132.76.34,3.68a6,6,0,0,1-1,4l-1.68,2.44a6,6,0,0,1-3.58,2.45h0a6,6,0,0,1-4.34-.61l-2.72-1.53a6,6,0,0,1-2.7-3.17l-1.55-4.19-.85-3.52-.08,0Z"/><path class="cls-2" d="M171.21,199.51c-2.92-10.34-10.49-18.79-18.25-25.92S136.18,160.38,126,157.37c-10.62-3.14-21.08-1.92-31.29,2.09a257.92,257.92,0,0,0-30.08,14.43,2,2,0,0,0-1.5-.17c-16.45,4.64-24.65,21.21-26.22,37.13-1,10.22-.08,20.9,1.32,31,1.31,9.46,6.26,14.89,14.26,19.64,30.78,18.28,70.78,13.81,96.92-10.49C163,238.47,175.6,218.72,171.21,199.51Zm-66.15-16c9.78,3.52,20.76,7.35,30.81,24.64,2.2,3.79-21.55-5.12-39.74-15.37a25.64,25.64,0,0,0-2.5-1.23c-12.7,12.79-19,32.95-18.49,28.35a55.71,55.71,0,0,1,12.71-30.07c-11.39-2-20.8,3.82-18.44.34,3.63-5.36,16.69-8.73,27-8.28,10.12-6.37,26.57-8.75,39.53.63C139.7,185.27,122.75,175.75,105.06,183.54Z"/><path class="cls-8" d="M406.69,366.16c-5.15,2.65-9.13.4-14.46-3.64-4.68-3.54-15.57-.94-18.16-.25a.24.24,0,0,1-.27-.35l5.55-9.69c5.85-10.2-1.65-27.24-4.58-28.59s-3.75-.46-10.44-.05c-5.85.36-13.75,4.46-15.65,5.49a.24.24,0,0,1-.35-.25c.36-2.39,1.7-13.24-2.19-22.72-4.41-10.72-9.76-9.41-12.22-11.65s1.87-10.11,2.28-10.87a.2.2,0,0,0,0-.14c-.09-.59-1.35-4-18.1,7.81a221.21,221.21,0,0,0-21,16.83l0,0-6.27,8c-6.28,8-3.66,19.16-5,12.46s-14.64-15.23-20.88-15.71-3.66,19.16.71,36.57,28.83,30.46,31,43.4c2,11.83,11.1,12.14,12.65,12.11.13,0-2.2-4.26,2,16.23a58,58,0,0,0,3.51,10.52h0c0,.13-4-2.56-7.18-4.48-9.45-5.69-20.95,2.57-35.21,2.06s-15.42,53-16.47,58.33,3.69,3.58,5.49,0,8.49-4,16.52-5.27c7.15-1.16,9-6.23,9.37-7.32a.23.23,0,0,1,.27-.16c.76.15,3.56.46,7.35-1.79,2.94-1.75,3.38-5.62,3.34-8.07a.23.23,0,0,1,.37-.19c.55.39,1.58.5,3.46-.18,4.91-1.76,6.73-9.33,11.21-12.43s1-5.47,8.07-5,5.36,13.08,2.18,24.66-7.63,46.22-9.45,52.46c-1.69,5.82,4.8,3.51,5.66,3.19a.21.21,0,0,0,.13-.13c.38-1,3.69-10.06,3.3-16-.42-6.24,5.61-37.31,8-48s1.28-12.92,4-16.92,1.79-2.22,8,4.5c5.52,6,8.6,6.65,9.22,6.72a.22.22,0,0,1,.17.11c.29.5,2,2.85,10.16,8,9.34,5.84,7.6-4,8.47-.4s8,4.94,12.91,4.52,8.89,6.29,10.68,4.06-4-8-3.51-10.72-2.31-18-9.69-25c-7.55-7.23-12.65-3.71-13.64-2.89a.24.24,0,0,1-.33,0c-5.43-6.47-6.13-3.84-13.2-3.31s-20.13,13.59-16.08,6,3.62-10.24,9.41-10.21c5.57,0,15.72-7.76,16.49-8.36a.19.19,0,0,1,.1,0c26.08-2.79,30.58-15.57,32.14-19.12a9.32,9.32,0,0,0-.23-7.58.23.23,0,0,1,.2-.34c1.07-.07,4.09-.77,4.12-6.49,0-7,6.3-12.63,8.55-16.18S411.84,363.51,406.69,366.16Zm-78.07,76.9a.24.24,0,0,1-.45.08c-1.08-2.05-4.42-8.32-6.43-11.42-4.15-6.41-4.23-15.08-4.23-15.59a.16.16,0,0,1,0,0c.13-.55,2.81-11.68,8.72-11.54a.24.24,0,0,1,.24.25c-.05,1.56-.25,10.42,2.17,14.49S329.09,439.38,328.62,443.06Z"/><path id="_Path_10" data-name="&lt;Path&gt;" class="cls-9" d="M291.49,168l-3.69-1.91c-1.3-1-2.23-.87-5.39-2.57l-6-2.28s-5.87-2-9.58-9.32a53,53,0,0,1-4.72-13l-4.32-15.57s-.18-1.08,3.05-2.7c.8-.4,3.46,5,3.46,5l10.16,20.28a2.43,2.43,0,0,0,3,1.61c3.25-.71-.67-4.94-.67-4.94L266,119.49a1.09,1.09,0,0,1,.27-1.38c.72-.57,3.19-1,3.44-.6l13.65,25.36s-.06,1.72,1.58.87-2.21-6.86-2.21-6.86L272,116.12a3.17,3.17,0,0,1,1.34-1.78c.92-.41,3.68,1.38,3.68,1.38l11.52,19.13s1.78,4.66,3.27,3.86-.23-2.33-.23-2.33l-12.2-24s-.52-.54.25-1.2a1.49,1.49,0,0,1,1.71,0s14.33,17.06,16.6,21.55,5.71,8,4.88,12.07-3.7,18-3.7,18l27.78,56.8s6.71,12.31,11.29,22c1.07,2.25,5.84,9.44,1.8,11.84l-2.69,1.27s-9.71.61-11.81-2.2l-1.85-2.3Z"/><path id="_Path_11" data-name="&lt;Path&gt;" class="cls-8" d="M509.37,375.07l-6.19,2.4,8.21-9.41a4.56,4.56,0,0,0,.46-3.68c-.51-2.46-3.66.19-3.66.19l-8.28,5.88,6.32-14.79s2.86-4.52.68-8-6.16,5.83-6.16,5.83l-18.32,38.93,10.11-37.54a3.89,3.89,0,0,0-.91-4c-1.78-1.81-2.23.35-3.71,1.77l-8.34,24.14-3.25-8.76s-.68-4.07-4-1.32c-1.57,1.31-3.25,44.95-3.25,44.95s-3.26,6.36-.55,7.38,43.32-40.41,43.32-40.41,1.55-1.85.87-3.57-3.34,0-3.34,0Z"/><path id="_Path_12" data-name="&lt;Path&gt;" class="cls-5" d="M561.16,523.91l-2.4-6.19,9.41,8.21a4.56,4.56,0,0,0,3.68.46c2.46-.51-.19-3.66-.19-3.66l-5.88-8.28,14.79,6.32s4.52,2.86,8,.68-5.83-6.16-5.83-6.16L543.76,497l37.54,10.11a3.89,3.89,0,0,0,4-.91c1.81-1.78-.35-2.23-1.77-3.71l-24.14-8.34,8.76-3.25s4.07-.68,1.32-4c-1.31-1.57-44.95-3.25-44.95-3.25s-6.36-3.26-7.38-.55,40.41,43.32,40.41,43.32,1.85,1.55,3.57.87,0-3.34,0-3.34Z"/><path id="_Path_13" data-name="&lt;Path&gt;" class="cls-8" d="M459.27,500.11c4.09-1.84,33.55-52.48,33.55-52.48s4.43-7.89,3.94-12.3-8.72,8.91-8.72,8.91l-11.15,16.45,5.65-29.35s.58-3.27-1.69-3.27-2.73,2.47-2.73,2.47l-10.42,47.13,2.7-33.34s1.54-5-1.13-3.89a4.2,4.2,0,0,0-2.83,3.29l-9,50.94-1.37,1.86-.7,2a1.75,1.75,0,0,0,2.18,2.26A17.5,17.5,0,0,0,459.27,500.11Z"/><path id="_Path_14" data-name="&lt;Path&gt;" class="cls-6" d="M388.9,223.28c-2.61-1.17-2.55-3.54-1.65-4.65l3.8-4.63c4.35-4.4,25.23-10.06,25.23-10.06,2-.85,4.93-.49,11.57,3.18l18.34,9.45a7.87,7.87,0,0,1,2.56,3.25l1.12,4c1,5.58-10.12,6.72-10.53,6.72l-10-.5a7.2,7.2,0,0,0-3,1.25l-.58,1.34a2.43,2.43,0,0,0-.6,1l-7.67,19.11c-.2.65.74,5.76-1,7.3s-9.43,1-9.43,1c-3.26,1.48-7.82-2.66-8.07-4.27l-1.42-2.33a7.6,7.6,0,0,1-.15-3.86l.53-1.72a14.89,14.89,0,0,1,1.36-2.38l9.23-12.52a2.43,2.43,0,0,0-.25-3.18h0a2.43,2.43,0,0,0-1.71-.7Z"/></g></g></svg>