<svg id="Layer_1" data-name="Layer 1" xmlns="http://www.w3.org/2000/svg" viewBox="0 0 14.61276 14.61276"><title>redes</title><path id="White" d="M13.80624,0H.80651A.80642.80642,0,0,0,0,.80651V13.80625a.80649.80649,0,0,0,.80651.80651H7.80513V8.95393H5.90081V6.74857H7.80513V5.12219a2.65727,2.65727,0,0,1,2.83646-2.91514,15.62468,15.62468,0,0,1,1.70167.08688V4.26639l-1.16774.00053c-.91569,0-1.093.43512-1.093,1.07363v1.408h2.18384L11.982,8.95393h-1.8995v5.65883h3.72371a.80657.80657,0,0,0,.80652-.80651V.80651A.8065.8065,0,0,0,13.80624,0Z"/></svg>