<svg id="Layer_1" data-name="Layer 1" xmlns="http://www.w3.org/2000/svg" viewBox="0 0 14.61276 14.61276"><title>redes</title><g id="_Group_" data-name="&lt;Group&gt;"><path id="_Compound_Path_" data-name="&lt;Compound Path&gt;" d="M0,13.12867V1.48411c.00964-.03144.02168-.06235.02854-.0944A1.662,1.662,0,0,1,1.30649.04529c.059-.01594.1184-.03024.17762-.04529H13.12867a.66571.66571,0,0,0,.07985.02673,1.6586,1.6586,0,0,1,1.35872,1.27941c.016.0591.03039.11864.04552.178V13.12867a.85852.85852,0,0,0-.02854.09434,1.68775,1.68775,0,0,1-1.30529,1.3527c-.05042.01089-.10021.02463-.15026.037H1.48411a.56347.56347,0,0,0-.07982-.02668A1.68174,1.68174,0,0,1,.04132,13.293C.02859,13.238.01382,13.1834,0,13.12867ZM1.68977,6.18881c-.00245.04942-.00591.08659-.00591.12379q-.00042,3.01048.00028,6.021a.56742.56742,0,0,0,.61827.59522q5.00084.00078,10.00171.00007a.57271.57271,0,0,0,.62491-.63181q.00044-2.97483.00015-5.94967v-.1563H11.66364a4.4208,4.4208,0,0,1-.76264,3.8051A4.33755,4.33755,0,0,1,7.459,11.793a4.25818,4.25818,0,0,1-3.13638-1.13254,4.45221,4.45221,0,0,1-1.38-4.4716Zm8.42759,1.12282a2.811,2.811,0,1,0-2.82,2.80536A2.81046,2.81046,0,0,0,10.11736,7.31163ZM11.532,1.68275c-.271,0-.542-.00162-.813.00039a.56048.56048,0,0,0-.60291.58108q-.01143.82705.00015,1.65443a.54982.54982,0,0,0,.57571.57771q.82706.01221,1.65445.00045a.55985.55985,0,0,0,.58243-.601q.002-.80583,0-1.6117a.56706.56706,0,0,0-.59811-.60081C12.06446,1.68074,11.79819,1.68275,11.532,1.68275Z"/></g></svg>