<?xml version="1.0" encoding="utf-8"?>
<!-- Generator: Adobe Illustrator 21.1.0, SVG Export Plug-In . SVG Version: 6.00 Build 0)  -->
<svg version="1.1" id="Layer_1" xmlns="http://www.w3.org/2000/svg" xmlns:xlink="http://www.w3.org/1999/xlink" x="0px" y="0px"
	 viewBox="0 0 589.3 588.9" style="enable-background:new 0 0 589.3 588.9;" xml:space="preserve">
<style type="text/css">
	.st0{fill:#5C6E36;}
	.st1{fill:#D4DE27;}
	.st2{fill:#024C2D;}
	.st3{fill:#8F534A;}
	.st4{fill:#74151E;}
	.st5{fill:#CF9E31;}
	.st6{fill:#E4BEB0;}
	.st7{fill:#C8B287;}
</style>
<title>ilustracion</title>
<path id="_Path_" class="st0" d="M455.7,490.1l-2.9,1.6c-9,5.1-19.2,7.5-29.5,6.8l-4.7-0.3c-6.7-0.4-13-3.2-18-7.7l-0.8-0.7
	c-7.2-6.6-9.4-12.9-6.2-15.3l6.4-2.6c4.7-2.6,15.7-3.9,27.7,3.8s29.1,6.6,29.1,6.6l1,3.5L455.7,490.1L455.7,490.1z"/>
<path id="_Path_2" class="st0" d="M392.5,471.5c-2.2-2.3,1.4-7.9,2.5-8.9l3.9-3.4c2.7-2.9,6.1-5.2,9.8-6.7c1-0.4,2-0.6,3.1-0.6
	l15.4-2.1c1.1-0.1,2.2-0.1,3.2,0.1c11.4,2.2,11.9,5.2,22.2,13.2l6.3,7.4c1.5,1.8,2.3,4.1,2.1,6.5l0,0c-0.1,0.9-0.6,1.8-1.3,2.4
	c-26,3.6-29.6-15.7-57.5-11.6L392.5,471.5z"/>
<path id="_Path_3" class="st0" d="M386.7,398.1c8.2-0.3,12.7,2.6,12.7,2.6c4.7,1.9,8.7,5.2,11.3,9.5l6.2,10.2
	c1.5,2.5,2.3,5.3,2.3,8.2c0,0,0,2.8,0,6s-2.1,8.5-3.7,5.2c-5.5-12.5-41.2-33.9-38-39.8l0,0C377.5,400.1,379.5,398.4,386.7,398.1z"/>
<path id="_Path_4" class="st0" d="M376.4,407.4c0.1,0.1,0.2,0.2,0.2,0.3c13.8,20.1,37.8,27.8,36.5,33.3c1.8,4-1.9,4.8-1.9,4.8
	c-2.4,1-4.9,1.5-7.5,1.3l-5.6-0.4c0,0-12.5-3.2-19.7-9.3c-5.4-4.6-8.8-14.7-10.1-19.4c-0.4-1.6-0.4-3.2,0-4.8l1.8-6.9
	c1-1.4,2.9-1.8,4.3-0.8c0.1,0.1,0.2,0.1,0.2,0.2c0.1,0.1,0.5,0.4,0.5,0.4l0,0L376.4,407.4z"/>
<path id="_Path_5" class="st0" d="M355.3,445l2.6,1.9c4.9,4.9,8.3,11.1,9.9,17.8c2.9,14.3,8.5,22.3,11.7,25.9c1.1,1.2,0.9,3-0.2,4.1
	c-0.2,0.2-0.4,0.3-0.6,0.4c-1.1,0.7-2.4,1-3.7,0.9c-6.1-1-12-7.8-12-7.8s-12-10.8-12.1-22.2C350.6,443.3,355.3,445,355.3,445
	L355.3,445z"/>
<path id="_Path_6" class="st0" d="M388.7,467.6c0.8,2.9-0.1,15.6-3,21.5c-0.5,1-1.5,1.6-2.6,1.6l0,0c0,0-1.5,0.8-6.7-7.6
	s-1.8-26.2-16.6-38.6c-2.1-2.7,5.1-3.4,5.1-3.4S381.8,442.9,388.7,467.6z"/>
<path id="_Compound_Path_" class="st0" d="M350.6,485.7l9.6-3.5c0.6-0.2,1.3-0.3,1.9-0.3c3,0.2,12.1,1.1,18.9,7
	c7.1,6.2,11.3,17.1,12.3,19.9c0.2,0.5,0.2,0.9,0.3,1.4c0.1,3.5-1,21.4-4.8,21.4c-4.3,0-1.8-18.5-14.7-22.3
	c-14.4-4.3-19.1-16.2-22.1-19C350.8,489.1,350.3,487.4,350.6,485.7L350.6,485.7L350.6,485.7z M349.4,491.4c-2.5-3.6-4.4-1.2-5.2,0.1
	c-0.2,0.4-0.4,0.8-0.5,1.2l-2,7.4c-0.2,0.9-0.2,1.9,0.1,2.8c4.4,19.5,5.6,22.7,18.3,28.5c16.7,7.6,22.2,3.9,18.3,3.3
	c-0.5-0.1,0.8-0.6,1.2-0.8l5.3-0.3c1.8-0.9,0.2-3.6,0-5.6c0-0.1,0-0.2,0-0.3c-0.1-0.5-0.2-1-0.4-1.5c-4.5-9.9-10.5-11.5-14.1-13.1
	c-4-2.6-7.7-5.8-10.7-9.5C359.6,503.6,352.2,495.3,349.4,491.4z"/>
<g id="_Group_">
	<path id="_Compound_Path_2" class="st1" d="M350,586.5l-26.5,2.4c-7.5,0.7-14.9-1.9-20.4-7l0,0c-14.9-14-25.5-32-30.3-51.9
		l-5.4-22.3l0.9-0.9l4.2,1.2l2.2,11.1l1.9,0.9c0,0,26.1-13.7,40.6-13.2s34.2,9.4,34.2,9.4s9.5,4.6,2.8,8.7
		c-10.3,6.4-17.8,7.9-17.8,7.9l0.1,0.7l16.8,18.4c2.1,2.3,3.5,5.2,3.9,8.3l2.9,19.6c0.2,1.5-0.2,3.1-1.1,4.3l0,0
		c-1.1,1.4-2.7,2.3-4.4,2.3L350,586.5L350,586.5z M295.2,528.7l-10-7.9l-8.8,1l-0.3,0.4l4.3,6.6L295.2,528.7L295.2,528.7z"/>
</g>
<path id="_Path_7" class="st2" d="M156.5,296c0,0-23.2-4.9-35.7-5.8S95,295.1,95,295.1l59.3-25.2c0,0,17.3-9.2,16-13.5s-7.5-3-7.5-3
	l-67.4,27.2l34.6-28l62.6-19.8c0,0,5.1-1.9,2.3-5.5s-14.6,0.3-14.6,0.3L133.6,241l78.3-42.7c0,0,20.5-10.5,16.6-14.9
	s-26.5,9.1-26.5,9.1l-20.2,8l45.4-43.5c0,0,4.7-7.5,1.2-9.8s-7.9,1.5-7.9,1.5l-50,50.5l25.7-42.2c0,0,12.4-12.9,5.5-13.9
	s-14.4,9-14.4,9l-47.6,73.2l24.1-74.1c0,0,1.5-4.7-1.5-5.8s-5.9,1.3-5.9,1.3l-41.5,95.9L93.6,264c0,0,45.3-80.2,34.3-83.1
	c-10.6-2.8-51.3,92.3-51.3,92.3l-14.9,17.9l10.9-63c0,0,0.6-2.5-2.8-5s-4.6,2.2-4.6,2.2l-26.6,98.6c-1.5,16.1-6.1,2.8-6-0.8
	l0.5-39.8c0,0,2.7-14.6-4.4-9.8s-7.5,9.2-7.5,9.2l-8.3,42l-1.6-5c0,0,0.7-10.8-5.5-7.1S0,320.4,0,320.4S0,408,0,439.1
	c0,2.8,0,4.2,0,7.7c0,5.8,8.6-7.9,10.3-11.2c5.9-11.3,21-46.5,21-46.5l63.2-34c0,0,16.2-1.9,9.1-13c-2.4-3.7-40.7,10.8-40.7,10.8
	l-18.3,10.9c0,0,37.4-33.2,55.6-35.6s27.5-2.8,27.5-2.8s5.9-2.2,6.7-5.9s-6.9-5.5-6.9-5.5s-13-0.9-24.6-1.2s-46.4,21.4-47.1,16.4
	s28.4-19.3,42.2-24s55.9,0.9,55.9,0.9s5.2-1,7.1-4S156.5,296,156.5,296L156.5,296z"/>
<path id="_Compound_Path_3" class="st3" d="M293.5,443.2c-0.7-13.7-14.2-17.6-14.2-17.6l-2.8-1.8l2.5-2.3l4.1-2.4
	c0,0,2.6-2.4,0.5-7.4s-44-34.7-44-34.7s-47.4-30-53.9-33.1L162.8,333l-3.9,0l-2.9,4.5l-1.6,7.6l-1.7,73.3l1.5,6l-5.3,1.3l-4.6,3.8
	l2.3,4.4l13.3,11l24.1,15.6l16.1,7.9l0.6-0.4c3.2-2,4.8-5.9,3.8-9.6l0-0.1l1.4-2.6l12.7,2.4c0,0,17.2,12.6,30.8,14.9
	s22,0.9,28.2-1.3c3.7-1.2,6.8-3.5,9.1-6.6l5.9-9l0.4-3C292.8,453.1,294.1,457,293.5,443.2z M277.9,458.6c-5,7.7-16.5,6.1-27.5,5.1
	c-11.2-1.1-15-6.4-15-6.4l-3.1-4.1l14.3-8.6l19-11.7l5.2-0.6c0,0,4.2-1.2,8.9,6s3.2,12.7,3.2,12.7L277.9,458.6z"/>
<path id="_Path_8" class="st4" d="M186.6,443.5c-5.9-6.5-10.7-3.9-10.7-3.9l-151.3,1.2c0,0-5.6,2.2-4.2,8.9s6.7,15.7,6.7,15.7
	s10,21.6,15.7,27.2l18.6,18.2l17.2,11.9l0.5,6.5c0,0-1,5.6,4.2,5.6h45.5c0,0,3.6,1.1,4.1-5.5s0.6-6.7,0.6-6.7s6.5-4,17.2-11.9
	s13.7-13.5,20.5-23s13.6-17.1,15.7-27.2c0.9-4.3-0.1,0.7,1.5-7.1l0,0C188.4,453.5,189,446.1,186.6,443.5z"/>
<path id="_Path_9" class="st5" d="M266.9,353.9l-26.1-129.2l-7-11.3l-9.4-7c-2-1.4-3.7-3.2-5.2-5.1l-6.5-8.5
	c-4-7.6-5.2-9.8-5.2-15.3l-0.1-8.3c-1.2-25.8,33.8-56.8,51.3-11.8c0,0,8.7,13.8,5.6,27.1c-1.5,6.2-4.8,11.9-9.6,16.2l-4.8,10.8
	l-0.7,10l35.9,132.8l0.3,3.7c0.1,1.4-0.2,2.8-1,4l-1.7,2.4c-0.8,1.2-2.1,2.1-3.6,2.4l0,0c-1.5,0.3-3,0.1-4.3-0.6l-2.7-1.5
	c-1.2-0.7-2.2-1.8-2.7-3.2l-1.5-4.2L266.9,353.9L266.9,353.9L266.9,353.9z"/>
<path class="st0" d="M171.2,88.6c-2.9-10.3-10.5-18.8-18.3-25.9c-7.7-7.1-16.8-13.2-26.9-16.2c-10.6-3.1-21.1-1.9-31.3,2.1
	c-10.3,4.2-20.4,9-30.1,14.4c-0.5-0.3-1-0.3-1.5-0.2C46.7,67.5,38.5,84,36.9,99.9c-1,10.2-0.1,20.9,1.3,31
	c1.3,9.5,6.3,14.9,14.3,19.6c30.8,18.3,70.8,13.8,96.9-10.5C163,127.6,175.6,107.8,171.2,88.6z M105.1,72.6
	c9.8,3.5,20.8,7.3,30.8,24.6c2.2,3.8-21.5-5.1-39.7-15.4c-0.8-0.5-1.6-0.9-2.5-1.2c-12.7,12.8-19,32.9-18.5,28.4
	C76.3,98,80.7,87.5,87.9,79c-11.4-2-20.8,3.8-18.4,0.3c3.6-5.4,16.7-8.7,27-8.3c10.1-6.4,26.6-8.7,39.5,0.6
	C139.7,74.4,122.7,64.9,105.1,72.6z"/>
<path class="st6" d="M406.7,255.3c-5.2,2.7-9.1,0.4-14.5-3.6c-4.7-3.5-15.6-0.9-18.2-0.2c-0.1,0-0.3,0-0.3-0.2c0-0.1,0-0.1,0-0.2
	l5.6-9.7c5.8-10.2-1.7-27.2-4.6-28.6c-2.9-1.4-3.7-0.5-10.4-0.1c-5.8,0.4-13.8,4.5-15.7,5.5c-0.1,0.1-0.3,0-0.3-0.1c0,0,0-0.1,0-0.2
	c0.4-2.4,1.7-13.2-2.2-22.7c-4.4-10.7-9.8-9.4-12.2-11.7c-2.3-2.1,1.9-10.1,2.3-10.9c0,0,0-0.1,0-0.1c-0.1-0.6-1.4-4-18.1,7.8
	c-7.3,5.2-14.4,10.8-21,16.8c0,0,0,0,0,0l-6.3,8c-6.3,8-3.7,19.2-5,12.5s-14.6-15.2-20.9-15.7s-3.7,19.2,0.7,36.6s28.8,30.5,31,43.4
	c2,11.8,11.1,12.1,12.6,12.1c0.1,0-2.2-4.3,2,16.2c0.8,3.6,2,7.1,3.5,10.5c0,0,0,0,0,0c0,0.1-4-2.6-7.2-4.5
	c-9.5-5.7-20.9,2.6-35.2,2.1s-15.4,53-16.5,58.3s3.7,3.6,5.5,0s8.5-4,16.5-5.3c7.2-1.2,9-6.2,9.4-7.3c0-0.1,0.1-0.2,0.3-0.2
	c0.8,0.1,3.6,0.5,7.4-1.8c2.9-1.7,3.4-5.6,3.3-8.1c0-0.1,0.1-0.2,0.2-0.2c0.1,0,0.1,0,0.1,0c0.6,0.4,1.6,0.5,3.5-0.2
	c4.9-1.8,6.7-9.3,11.2-12.4s1-5.5,8.1-5s5.4,13.1,2.2,24.7s-7.6,46.2-9.4,52.5c-1.7,5.8,4.8,3.5,5.7,3.2c0.1,0,0.1-0.1,0.1-0.1
	c0.4-1,3.7-10.1,3.3-16c-0.4-6.2,5.6-37.3,8-48s1.3-12.9,4-16.9s1.8-2.2,8,4.5c5.5,6,8.6,6.6,9.2,6.7c0.1,0,0.1,0.1,0.2,0.1
	c0.3,0.5,2,2.8,10.2,8c9.3,5.8,7.6-4,8.5-0.4s8,4.9,12.9,4.5s8.9,6.3,10.7,4.1s-4-8-3.5-10.7s-2.3-18-9.7-25
	c-7.6-7.2-12.7-3.7-13.6-2.9c-0.1,0.1-0.3,0.1-0.3,0c-5.4-6.5-6.1-3.8-13.2-3.3c-7.1,0.5-20.1,13.6-16.1,6s3.6-10.2,9.4-10.2
	c5.6,0,15.7-7.8,16.5-8.4c0,0,0.1,0,0.1,0c26.1-2.8,30.6-15.6,32.1-19.1c1-2.4,0.9-5.2-0.2-7.6c-0.1-0.1,0-0.3,0.1-0.3
	c0,0,0.1,0,0.1,0c1.1-0.1,4.1-0.8,4.1-6.5c0-7,6.3-12.6,8.6-16.2S411.8,252.6,406.7,255.3z M328.6,332.2c0,0.1-0.1,0.2-0.3,0.2
	c-0.1,0-0.1-0.1-0.2-0.1c-1.1-2.1-4.4-8.3-6.4-11.4c-4.2-6.4-4.2-15.1-4.2-15.6c0,0,0,0,0,0c0.1-0.6,2.8-11.7,8.7-11.5
	c0.1,0,0.2,0.1,0.2,0.2c0,0,0,0,0,0c-0.1,1.6-0.2,10.4,2.2,14.5C331,312.3,329.1,328.5,328.6,332.2z"/>
<path id="_Path_10" class="st7" d="M291.5,57.1l-3.7-1.9c-1.3-1-2.2-0.9-5.4-2.6l-6-2.3c0,0-5.9-2-9.6-9.3c-2.1-4.1-3.7-8.5-4.7-13
	l-4.3-15.6c0,0-0.2-1.1,3.1-2.7c0.8-0.4,3.5,5,3.5,5L274.5,35c0.4,1.3,1.7,2,3,1.6c3.3-0.7-0.7-4.9-0.7-4.9L266,8.6
	c-0.3-0.5-0.1-1,0.3-1.4c0.7-0.6,3.2-1,3.4-0.6L283.4,32c0,0-0.1,1.7,1.6,0.9s-2.2-6.9-2.2-6.9L272,5.2c0.2-0.7,0.7-1.4,1.3-1.8
	c0.9-0.4,3.7,1.4,3.7,1.4l11.5,19.1c0,0,1.8,4.7,3.3,3.9s-0.2-2.3-0.2-2.3l-12.2-24c0,0-0.5-0.5,0.3-1.2c0.5-0.4,1.2-0.4,1.7,0
	c0,0,14.3,17.1,16.6,21.6s5.7,8,4.9,12.1s-3.7,18-3.7,18l27.8,56.8c0,0,6.7,12.3,11.3,22c1.1,2.3,5.8,9.4,1.8,11.8l-2.7,1.3
	c0,0-9.7,0.6-11.8-2.2l-1.9-2.3L291.5,57.1z"/>
<path id="_Path_11" class="st6" d="M509.4,264.2l-6.2,2.4l8.2-9.4c0.7-1.1,0.8-2.4,0.5-3.7c-0.5-2.5-3.7,0.2-3.7,0.2l-8.3,5.9
	l6.3-14.8c0,0,2.9-4.5,0.7-8s-6.2,5.8-6.2,5.8l-18.3,38.9l10.1-37.5c0.5-1.4,0.1-3-0.9-4c-1.8-1.8-2.2,0.4-3.7,1.8l-8.3,24.1
	l-3.2-8.8c0,0-0.7-4.1-4-1.3c-1.6,1.3-3.3,44.9-3.3,44.9s-3.3,6.4-0.6,7.4s43.3-40.4,43.3-40.4s1.6-1.8,0.9-3.6
	S509.4,264.2,509.4,264.2L509.4,264.2z"/>
<path id="_Path_12" class="st3" d="M561.2,413l-2.4-6.2l9.4,8.2c1.1,0.7,2.4,0.8,3.7,0.5c2.5-0.5-0.2-3.7-0.2-3.7l-5.9-8.3l14.8,6.3
	c0,0,4.5,2.9,8,0.7s-5.8-6.2-5.8-6.2l-38.9-18.3l37.5,10.1c1.4,0.5,3,0.1,4-0.9c1.8-1.8-0.4-2.2-1.8-3.7l-24.1-8.3l8.8-3.2
	c0,0,4.1-0.7,1.3-4c-1.3-1.6-44.9-3.3-44.9-3.3s-6.4-3.3-7.4-0.6s40.4,43.3,40.4,43.3s1.8,1.6,3.6,0.9S561.2,413,561.2,413
	L561.2,413z"/>
<path id="_Path_13" class="st6" d="M459.3,389.2c4.1-1.8,33.6-52.5,33.6-52.5s4.4-7.9,3.9-12.3c-0.5-4.5-8.7,8.9-8.7,8.9l-11.2,16.4
	l5.6-29.3c0,0,0.6-3.3-1.7-3.3s-2.7,2.5-2.7,2.5l-10.4,47.1l2.7-33.3c0,0,1.5-5-1.1-3.9c-1.5,0.5-2.6,1.8-2.8,3.3l-9,50.9l-1.4,1.9
	l-0.7,2c-0.3,0.9,0.2,1.9,1.1,2.2c0.4,0.1,0.8,0.1,1.1,0C458.2,389.7,458.7,389.5,459.3,389.2z"/>
<path id="_Path_14" class="st4" d="M388.9,112.4c-2.6-1.2-2.6-3.5-1.6-4.6l3.8-4.6c4.4-4.4,25.2-10.1,25.2-10.1
	c2-0.9,4.9-0.5,11.6,3.2l18.3,9.5c1.1,0.8,2,2,2.6,3.3l1.1,4c1,5.6-10.1,6.7-10.5,6.7l-10-0.5c-1.1,0.2-2.1,0.6-3,1.2l-0.6,1.3
	c-0.3,0.3-0.5,0.6-0.6,1l-7.7,19.1c-0.2,0.6,0.7,5.8-1,7.3s-9.4,1-9.4,1c-3.3,1.5-7.8-2.7-8.1-4.3l-1.4-2.3
	c-0.4-1.3-0.4-2.6-0.2-3.9l0.5-1.7c0.4-0.8,0.8-1.6,1.4-2.4l9.2-12.5c0.7-1,0.6-2.3-0.3-3.2l0,0c-0.5-0.4-1.1-0.7-1.7-0.7
	L388.9,112.4z"/>
</svg>
