<svg xmlns="http://www.w3.org/2000/svg" viewBox="0 0 294.88 100"><title>niddo</title><g id="Layer_2" data-name="Layer 2"><g id="Layer_1-2" data-name="Layer 1"><path d="M57.4,86.83c0,10.68,1.7,10.92,5.82,10.8,1,0,1,1.09,0,1.09s-8.86-.24-10.8-.24-6.8.24-10.31.24c-1,0-1-1.09,0-1.09,5,0,6.31-.85,6.31-11.53L48.3,60.25c-.12-15-7.28-19.78-14.68-19.78-7.65,0-12.62,3.4-18.32,11V97.63H21.6c1,0,1,1.09,0,1.09s-7.28-.24-9.22-.24-8.13.24-11.65.24c-1,0-1-1.09,0-1.09,5.22,0,5.46-1.46,5.46-13.35V53c0-3.52-2.79-6.67-5.58-9.22-.36-.36-.24-.61,0-.73,2.18-.85,6.8-3,8.86-5.1.24-.24.36-.24.73.12a20,20,0,0,1,5,12c6.19-8.25,13.11-13.23,22.45-13.23,10.92,0,19.78,5.58,19.78,24.63Z"/><path d="M213.09,16.08c0-10.44-1.94-10.44-8-9.34-1,.12-1-1,0-1.09A45.24,45.24,0,0,0,219.77.06c.36-.24,2.43.24,2.43.85V84.28c0,11.89.12,13.35,6.19,13.35,1,0,1,1.09,0,1.09-7.4,0-10.68.36-14.68,1.21-1,.24-1.46-.24-1.46-1.09s.73-5.58.85-12.5c-5.82,8.49-15.41,13.59-24.88,13.59-13.83,0-25.48-11.77-25.48-28.52,0-20,17.35-34.59,34.83-34.59a25.55,25.55,0,0,1,15.53,5.7ZM171.23,66.57c0,14.2,8.13,29.37,23.18,29.37,7.4,0,14.56-4.73,18.69-11.53V51.52c-4.37-4.61-11.77-12-20.63-12C179.36,39.5,171.23,48.73,171.23,66.57Z"/><path d="M72.2,53c0-9.22-1.7-9.59-7.77-8.25-1,.24-1.33-.73-.36-1a40.35,40.35,0,0,0,15.17-6.92c.36-.24,2.18.24,2.18.85V85.37c0,10.44.49,12.26,7.28,12.26,1,0,1,1.09,0,1.09-3.52,0-9.83-.24-11.65-.24s-8.74.24-12.26.24c-1,0-1-1.09,0-1.09,6.92,0,7.4-1.82,7.4-12.26Zm4.13-39.32a6.47,6.47,0,0,1,6.43,6.43,6.37,6.37,0,0,1-6.43,6.31A6.27,6.27,0,0,1,70,20.09,6.37,6.37,0,0,1,76.33,13.66Z"/><path d="M142.83,16.08c0-10.44-1.94-10.44-8-9.34-1,.12-1-1,0-1.09A45.24,45.24,0,0,0,149.51.06c.36-.24,2.43.24,2.43.85V84.28c0,11.89.12,13.35,6.19,13.35,1,0,1,1.09,0,1.09-7.4,0-10.68.36-14.68,1.21-1,.24-1.46-.24-1.46-1.09s.73-5.58.85-12.5C137,94.84,127.42,99.94,118,99.94c-13.83,0-25.48-11.77-25.48-28.52,0-20,17.35-34.59,34.83-34.59a25.55,25.55,0,0,1,15.53,5.7ZM101,66.57c0,14.2,8.13,29.37,23.18,29.37,7.4,0,14.56-4.73,18.69-11.53V51.52c-4.37-4.61-11.77-12-20.63-12C109.09,39.5,101,48.73,101,66.57Z"/><path d="M233,69.6c0-17.48,13.35-32.77,32-32.77,17.11,0,29.85,12,29.85,30.7,0,15.65-13.47,32.4-31.79,32.4C246,99.94,233,87.92,233,69.6Zm52.06-.12c0-15.17-8.13-31.43-21.48-31.43-14.2,0-20.51,11.77-20.51,29.49,0,14.93,8,31.07,22.09,31.07C278,98.6,285.05,87.44,285.05,69.48Z"/></g></g></svg>