<svg id="Layer_1" data-name="Layer 1" xmlns="http://www.w3.org/2000/svg" viewBox="0 0 14.61276 14.61276"><title>redes</title><path id="_Path_" data-name="&lt;Path&gt;" d="M14.61276,2.77442a5.99326,5.99326,0,0,1-1.7219.47207,3.00668,3.00668,0,0,0,1.3182-1.65863,6.0022,6.0022,0,0,1-1.90375.72753A3.0008,3.0008,0,0,0,7.19658,5.04976a8.51118,8.51118,0,0,1-6.1793-3.13238A3.00129,3.00129,0,0,0,1.94509,5.92,2.98592,2.98592,0,0,1,.58717,5.545l-.00026.03768a2.99977,2.99977,0,0,0,2.4049,2.93969,3.00539,3.00539,0,0,1-1.35391.05136,3.0011,3.0011,0,0,0,2.80056,2.08206,6.01541,6.01541,0,0,1-3.7233,1.28333A6.1039,6.1039,0,0,1,0,11.89722a8.48574,8.48574,0,0,0,4.59563,1.3469,8.47168,8.47168,0,0,0,8.52986-8.52994q0-.195-.00866-.38783A6.09278,6.09278,0,0,0,14.61276,2.77442Z"/></svg>