<svg xmlns="http://www.w3.org/2000/svg" viewBox="0 0 81.08 16.62"><title>Recurso 1</title><g id="Capa_2" data-name="Capa 2"><g id="Layer_1" data-name="Layer 1"><path d="M17,16.16V6.24l-3.67,9.92H9.09L5.45,6.28v9.88H0V.66H7.36l3.9,10.12L15.17.66h7.34v15.5Z"/><path d="M37.53,16.16l-.83-2.52H30.77l-.84,2.52h-6.1L30.53.66h6.32l6.72,15.5ZM33.71,5l-1.78,5.25h3.6Z"/><path d="M59.71,14.1c-1.29,1.62-3.62,2.52-7.86,2.52-3.64,0-5.71-.85-6.85-2.15a5.1,5.1,0,0,1-1.25-2.94l5.47-.13a1.53,1.53,0,0,0,.7,1.07,4.29,4.29,0,0,0,2.74.68,4.12,4.12,0,0,0,1.8-.33,1.48,1.48,0,0,0,.88-1.23,1.2,1.2,0,0,0-.88-1.12A16.56,16.56,0,0,0,52.09,10c-1.21-.24-2.44-.44-3.64-.77a5.32,5.32,0,0,1-3.32-2A3.93,3.93,0,0,1,44.52,5,4.15,4.15,0,0,1,45.2,2.7c1-1.62,3.16-2.7,7.13-2.7a17.78,17.78,0,0,1,4.83.62,4.7,4.7,0,0,1,1.52.79,4.39,4.39,0,0,1,1.8,3.11l-5.42.31a3.72,3.72,0,0,0-.2-.5c-.35-.6-1.14-1-2.55-1a3.75,3.75,0,0,0-2.08.53,1,1,0,0,0-.36.75.86.86,0,0,0,.36.7C51,6,53.74,6.35,56.51,7a5.83,5.83,0,0,1,3.2,1.52,3.57,3.57,0,0,1,1,2.66A4.74,4.74,0,0,1,59.71,14.1Z"/><path d="M75,16.16l-.83-2.52H68.28l-.84,2.52h-6.1L68,.66h6.32l6.72,15.5ZM71.22,5l-1.78,5.25H73Z"/></g></g></svg>