<svg xmlns="http://www.w3.org/2000/svg" viewBox="0 0 1096.85 222.49"><defs><style>.cls-1{fill:#fff;}</style></defs><title>Asset 1</title><g id="Layer_2" data-name="Layer 2"><g id="Layer_1-2" data-name="Layer 1"><path class="cls-1" d="M989.28,136.67h-48.2l23.81-70.24Zm107.57,79.65L1006.92,8.82H922.27l-89.64,207.5h81.71l11.17-33.8h79.35l11.17,33.8Zm-272.16-67c0-19.4-8.52-30.27-13.81-35.56-7.94-8.52-19.1-14.7-42.91-20.28-37-8.52-73.77-13.52-84.06-21.75a11.48,11.48,0,0,1-4.7-9.4,12.81,12.81,0,0,1,4.7-10c8.82-7.35,26.75-7.05,27.92-7.05,18.81,0,29.39,4.7,34.09,12.64a46.22,46.22,0,0,1,2.65,6.76l72.59-4.11c-1.47-9.11-4.41-27.33-24.1-41.73A66.84,66.84,0,0,0,776.79,8.23C759.45,2.35,730.35,0,712.13,0c-53.2,0-82,14.4-95.52,36.15a55.67,55.67,0,0,0-9.11,30.57,52.5,52.5,0,0,0,8.23,28.8c10.58,16.16,26.75,22.34,44.38,27.33,16.16,4.41,32.62,7.05,48.79,10.29,14.4,2.65,26.75,5,31.74,7.05,9.7,4.11,11.76,10.29,11.76,15,0,7.35-5.58,13.23-11.76,16.46-7.05,3.53-16.46,4.41-24.1,4.41-19.4,0-29.68-3.82-36.74-9.11-7.35-5.29-8.82-10.87-9.41-14.4l-73.18,1.76c1.18,7.64,2.65,23.81,16.75,39.38,15.28,17.34,42.91,28.8,91.7,28.8,56.72,0,87.88-12.05,105.22-33.8A63.59,63.59,0,0,0,824.7,149.3M481.42,136.67h-48.2L457,66.42ZM589,216.31,499.05,8.82H414.41l-89.64,207.5h81.71l11.17-33.8H497l11.17,33.8Zm-287.73,0V8.82H203.09L150.77,144.31,98.46,8.82H0v207.5H72.89V84.06l48.79,132.26H179L228.07,83.47V216.31Z"/></g></g></svg>